<?xml version="1.0" standalone="no"?>
<!DOCTYPE svg PUBLIC "-//W3C//DTD SVG 20010904//EN"
 "http://www.w3.org/TR/2001/REC-SVG-20010904/DTD/svg10.dtd">
<svg version="1.0" xmlns="http://www.w3.org/2000/svg"
 width="901.000000pt" height="901.000000pt" viewBox="0 0 901.000000 901.000000"
 preserveAspectRatio="xMidYMid meet">
<metadata>
Created by potrace 1.16, written by Peter Selinger 2001-2019
</metadata>
<g transform="translate(0.000000,901.000000) scale(0.100000,-0.100000)"
fill="#000000" stroke="none">
<path d="M1382 8560 c-107 -65 -172 -190 -172 -329 0 -43 -4 -123 -10 -177
-11 -116 -29 -359 -60 -814 -10 -154 -23 -328 -45 -615 -9 -110 -20 -270 -26
-355 -5 -85 -14 -207 -19 -270 -6 -63 -14 -176 -19 -250 -27 -407 -31 -467
-37 -489 -3 -13 -9 -117 -14 -230 -10 -211 -32 -578 -50 -826 -6 -77 -15 -201
-20 -275 -5 -74 -12 -162 -15 -195 -3 -33 -12 -154 -20 -270 -37 -509 -85
-1048 -101 -1134 -4 -20 -14 -35 -24 -38 -20 -5 -33 -69 -34 -179 -1 -79 -14
-104 -53 -104 -16 0 -27 -7 -30 -20 -4 -16 -15 -20 -72 -22 l-66 -3 -3 -32
c-3 -28 -7 -32 -35 -35 -28 -3 -32 -7 -35 -35 -3 -30 -6 -33 -38 -33 -32 0
-34 -2 -34 -34 0 -32 -3 -35 -32 -38 -29 -3 -33 -7 -36 -36 -3 -29 -6 -32 -38
-32 -32 0 -34 -2 -34 -35 0 -32 -3 -35 -28 -35 -42 0 -52 -17 -52 -87 0 -49
-3 -63 -15 -63 -11 0 -15 -11 -15 -40 0 -22 5 -40 10 -40 6 0 11 -53 11 -137
1 -76 4 -172 8 -213 l6 -75 36 -3 37 -3 7 -66 c5 -52 11 -66 26 -70 10 -3 19
-13 19 -23 0 -10 9 -20 20 -23 16 -4 20 -14 20 -45 0 -52 15 -92 35 -92 8 0
15 -6 15 -12 0 -13 43 -58 55 -58 12 0 35 -28 35 -44 0 -9 5 -16 10 -16 6 0
10 -7 10 -15 0 -18 109 -125 127 -125 7 0 13 -4 13 -10 0 -5 9 -10 19 -10 11
0 23 -4 26 -10 11 -18 207 -110 236 -110 15 0 44 -9 64 -20 19 -11 67 -27 105
-36 39 -8 70 -19 70 -23 0 -13 65 -31 111 -31 25 0 49 -4 55 -10 13 -13 219
-31 424 -37 127 -3 184 -8 208 -19 24 -11 86 -17 232 -21 167 -5 200 -9 200
-21 0 -13 150 -14 1217 -10 933 3 1218 7 1221 16 2 8 36 12 107 12 59 0 107 4
110 10 3 6 51 10 110 10 74 0 105 4 107 13 4 9 73 13 284 17 l279 5 3 36 3 36
103 6 c57 4 154 4 215 0 l111 -6 0 41 c0 40 1 42 30 42 20 0 30 -5 30 -15 0
-11 11 -15 40 -15 29 0 40 4 40 15 0 12 13 15 59 15 80 0 91 5 91 46 l0 34
140 0 140 0 0 25 c0 24 2 25 69 25 75 0 81 5 81 61 l0 29 140 0 140 0 0 23 c0
23 3 24 107 30 58 4 155 7 215 7 99 0 109 2 106 18 -3 15 -19 17 -146 20 -133
2 -142 4 -142 22 0 18 9 20 143 22 l142 3 3 68 3 67 202 0 c145 0 206 3 215
12 7 7 12 27 12 45 0 31 -2 33 -35 33 l-35 0 0 65 c0 62 1 65 24 65 21 0 25
-6 28 -32 l3 -33 75 0 75 0 3 103 3 102 34 0 c33 0 35 2 35 35 0 33 2 35 35
35 33 0 35 2 35 35 l0 35 63 0 c36 0 68 5 75 12 9 9 12 104 12 365 l0 353 -35
0 c-32 0 -35 2 -35 31 0 22 -5 32 -20 36 -13 3 -20 14 -20 29 0 18 -10 28 -44
44 -25 11 -50 20 -55 20 -6 0 -11 11 -11 25 0 19 -9 29 -35 42 -28 13 -35 22
-35 45 0 30 -28 48 -75 48 -14 0 -29 9 -35 20 -7 13 -21 20 -39 20 -20 0 -30
6 -34 20 -3 13 -17 22 -36 26 -17 4 -31 10 -31 15 0 5 -6 9 -12 9 -7 0 -33 19
-58 43 -25 23 -80 60 -122 81 -56 28 -80 46 -88 67 -9 21 -21 30 -48 35 -32 6
-56 15 -147 54 -11 5 -45 20 -75 34 -30 14 -68 28 -85 31 -61 13 -76 26 -69
59 3 17 12 41 20 53 13 20 29 78 55 188 5 22 13 56 18 75 6 19 35 130 65 246
30 117 59 221 65 232 6 12 11 31 11 45 0 22 9 58 61 247 12 41 23 86 26 100 2
14 8 34 13 45 5 11 13 40 19 65 5 25 14 61 20 80 30 110 61 235 61 250 0 10 7
31 15 46 8 16 15 39 15 52 0 13 5 33 12 45 6 12 15 38 19 57 7 32 34 130 90
325 11 39 24 91 29 116 5 26 18 65 29 87 12 23 21 54 21 70 0 16 13 65 29 110
16 45 33 103 37 129 3 27 10 53 14 58 4 6 10 30 13 55 3 25 19 85 36 134 18
50 36 118 41 153 4 34 16 72 24 85 9 12 16 37 16 56 0 18 7 49 15 69 8 19 15
50 15 67 0 17 9 49 19 71 10 22 21 59 25 83 7 44 46 186 64 232 15 39 29 90
42 150 6 30 18 75 26 100 9 25 19 68 24 97 4 29 15 62 24 75 9 12 16 42 16 65
0 24 9 60 20 80 11 21 20 56 20 78 0 23 6 47 12 53 17 17 28 145 14 154 -6 4
-29 4 -52 1 -36 -5 -43 -2 -61 21 -12 14 -25 26 -30 26 -5 0 -14 5 -21 12 -8
8 -61 13 -151 16 l-140 3 -3 -33 c-3 -32 -5 -33 -48 -34 -25 -1 -51 -2 -57 -3
-18 -2 -16 -31 2 -31 11 0 15 -12 15 -45 0 -45 0 -45 -35 -45 -44 0 -46 -17
-2 -23 l32 -4 -33 -1 c-19 -1 -35 -8 -38 -17 -4 -8 -13 -15 -20 -15 -8 0 -17
-7 -20 -15 -4 -11 -21 -15 -55 -15 -46 0 -49 -2 -49 -25 0 -20 5 -25 25 -25
14 0 25 -4 25 -10 0 -5 -18 -10 -40 -10 l-40 0 0 59 c0 41 5 62 15 71 11 9 13
16 6 23 -6 6 -12 9 -13 6 -2 -2 -18 -21 -37 -41 -33 -36 -34 -38 -17 -57 12
-14 16 -32 14 -67 l-3 -49 -50 -3 c-27 -2 -55 -8 -62 -14 -15 -12 -33 -2 -33
18 0 8 -10 14 -26 14 -27 0 -28 -11 -8 -65 5 -11 0 -18 -15 -22 -20 -5 -26
-23 -22 -65 3 -28 -37 -23 -42 5 -4 22 -4 22 -6 -1 0 -15 -9 -26 -21 -29 -14
-4 -20 -14 -20 -34 0 -32 -16 -40 -23 -11 -3 14 -6 13 -15 -8 l-11 -25 0 28
c-1 24 -5 27 -36 27 -28 0 -35 -4 -35 -20 0 -15 7 -20 25 -20 15 0 25 -6 25
-14 0 -8 2 -21 5 -28 3 -8 -11 -33 -31 -57 -44 -50 -77 -53 -82 -8 -5 46 -34
24 -47 -35 -3 -16 -12 -28 -19 -28 -8 0 -16 -10 -18 -22 -2 -18 -11 -24 -38
-28 -28 -4 -36 -11 -44 -37 -9 -33 -31 -43 -51 -24 -6 5 -20 12 -32 15 -18 6
-22 3 -25 -21 -2 -17 -11 -32 -25 -38 -13 -5 -23 -15 -23 -22 0 -6 -12 -13
-27 -15 -23 -2 -29 -8 -31 -35 -3 -32 -4 -32 -60 -35 -53 -3 -57 -5 -60 -29
-2 -17 -11 -29 -23 -32 -14 -4 -19 -14 -19 -40 0 -20 5 -39 10 -42 6 -3 10
-19 10 -35 0 -27 -1 -28 -69 -35 -69 -7 -70 -7 -73 -38 -3 -28 -7 -33 -38 -37
-33 -5 -35 -8 -38 -45 -4 -46 -23 -65 -68 -65 -17 0 -38 -7 -45 -16 -12 -15
-14 -14 -19 7 -5 20 -12 24 -40 24 -43 0 -47 -24 -7 -43 27 -13 37 -45 17 -57
-6 -3 -29 -7 -53 -7 -80 -1 -87 -8 -87 -88 0 -63 -2 -70 -19 -70 -11 0 -23 5
-26 10 -10 17 -75 12 -75 -5 0 -9 -9 -15 -25 -15 -20 0 -25 -5 -25 -26 0 -17
-6 -28 -20 -31 -11 -3 -20 -12 -20 -19 0 -8 -10 -14 -22 -14 -23 0 -48 -37
-48 -70 0 -25 -21 -40 -55 -40 -19 0 -36 -7 -45 -20 -10 -14 -26 -20 -55 -20
-23 0 -46 -5 -53 -12 -7 -7 -12 -43 -12 -91 0 -76 -1 -78 -22 -75 -17 2 -24
11 -26 33 -4 33 -37 75 -60 75 -11 0 -12 -3 -3 -13 6 -8 7 -17 2 -23 -5 -5
-11 -22 -13 -39 -3 -26 -8 -30 -35 -33 l-32 -3 -3 -67 -3 -67 -32 -3 c-21 -2
-33 -9 -33 -18 0 -11 -15 -14 -61 -14 -52 0 -62 -3 -66 -20 -4 -14 -14 -20
-33 -20 -34 0 -57 -32 -62 -86 -2 -32 -7 -40 -25 -42 -13 -2 -23 -9 -23 -17 0
-7 -9 -15 -20 -18 -11 -3 -20 -12 -20 -21 0 -10 -9 -16 -25 -16 -15 0 -25 -6
-25 -14 0 -7 -9 -16 -20 -19 -14 -3 -20 -14 -20 -31 0 -23 -4 -26 -35 -26 -33
0 -35 -2 -35 -34 l0 -35 -52 -3 -53 -3 -10 -65 -10 -65 -88 -3 -87 -3 0 -33
c0 -25 -5 -35 -20 -39 -11 -3 -20 -12 -20 -21 0 -10 -9 -16 -25 -16 -15 0 -25
-6 -25 -14 0 -11 -15 -16 -52 -18 l-53 -3 -3 -62 c-2 -47 -7 -63 -17 -63 -8 0
-15 -4 -15 -10 0 -5 -8 -10 -18 -10 -24 0 -59 -38 -67 -72 -5 -21 -13 -28 -31
-28 -14 0 -27 -7 -30 -15 -8 -21 -74 -21 -74 0 0 9 -9 15 -25 15 -16 0 -25 6
-25 16 0 8 -4 12 -10 9 -5 -3 -10 -17 -10 -31 0 -15 -7 -27 -17 -30 -37 -11
-48 -22 -54 -53 -4 -18 -19 -45 -33 -60 -29 -30 -33 -43 -11 -35 10 4 15 0 15
-16 0 -16 -5 -21 -22 -18 -20 3 -23 -1 -20 -25 4 -30 -14 -61 -29 -51 -5 3 -9
21 -9 40 0 28 -4 35 -17 32 -11 -2 -19 -14 -21 -31 -4 -30 -17 -36 -26 -11 -4
11 -14 15 -31 12 -13 -3 -26 0 -28 6 -2 6 -14 0 -25 -14 -25 -30 -28 -42 -7
-34 12 5 15 -4 15 -49 0 -50 -2 -55 -25 -59 -14 -3 -25 -1 -25 3 0 5 -5 9 -11
9 -5 0 -8 -4 -4 -9 3 -5 0 -13 -6 -17 -8 -4 -9 -3 -5 4 4 7 1 12 -9 12 -12 0
-14 6 -9 27 l7 27 -29 -27 c-16 -15 -34 -27 -41 -27 -7 0 -13 -4 -13 -10 0 -5
-16 -25 -37 -45 l-36 -35 34 -1 c23 -1 27 -3 12 -6 -13 -2 -23 -10 -23 -18 0
-7 -7 -16 -16 -19 -12 -4 -14 -1 -9 14 7 23 -1 25 -31 7 -22 -13 -94 -90 -94
-101 0 -12 24 -6 42 11 20 18 39 10 20 -9 -23 -23 -13 -38 26 -39 26 -1 30 -3
12 -6 -14 -2 -39 -8 -56 -14 -26 -8 -30 -13 -26 -39 4 -25 1 -28 -17 -23 -18
4 -21 13 -21 54 0 27 -2 49 -4 49 -3 0 -45 -40 -94 -90 -49 -49 -91 -90 -94
-90 -3 0 -108 -102 -234 -227 -126 -126 -243 -235 -259 -243 -38 -19 -105 -72
-105 -84 0 -18 -103 -105 -132 -111 -17 -4 -32 -15 -35 -24 -5 -20 -85 -41
-155 -41 -68 0 -107 -10 -113 -30 -4 -14 -22 -18 -101 -23 -53 -3 -101 -10
-107 -16 -6 -6 -26 -11 -44 -11 -18 0 -33 -4 -33 -10 0 -5 -16 -10 -35 -10
-28 0 -35 -4 -35 -20 0 -15 -7 -20 -25 -20 -19 0 -25 -5 -25 -22 0 -28 -49
-56 -62 -35 -11 15 -3 620 12 922 36 757 77 1452 102 1720 6 66 12 158 14 205
3 84 15 295 34 640 6 96 15 272 20 390 6 118 15 276 20 350 5 74 14 232 20
350 14 284 21 370 32 370 5 0 67 -57 137 -127 70 -71 222 -218 336 -328 115
-110 276 -267 360 -350 83 -82 223 -217 311 -300 87 -82 269 -258 404 -391
135 -132 323 -317 418 -410 182 -178 194 -194 231 -322 76 -266 52 -583 -64
-847 -8 -16 -19 -48 -26 -70 -14 -44 -49 -97 -89 -135 -53 -51 -122 -130 -114
-130 6 0 41 31 79 69 38 39 71 68 74 65 8 -8 31 18 31 35 0 10 11 28 25 41 14
13 25 28 25 34 0 6 17 19 38 29 20 10 62 47 92 82 30 36 58 65 61 65 3 0 46
40 95 89 49 49 97 98 108 108 257 249 482 472 669 661 97 100 186 184 197 187
10 3 22 15 25 26 4 11 19 27 33 37 15 9 33 25 40 34 7 10 20 18 28 18 8 0 14
4 14 9 0 5 23 31 51 58 28 26 62 65 75 86 14 20 32 37 43 37 10 0 36 21 57 46
21 25 49 56 62 70 12 14 22 32 22 40 0 9 6 14 12 12 7 -3 29 10 48 29 19 18
40 33 45 33 6 0 20 15 33 34 13 19 42 52 65 73 157 147 207 198 212 212 3 9
18 23 34 33 23 13 30 24 33 54 3 36 28 63 28 30 0 -9 8 -16 20 -16 11 0 20 7
20 15 0 8 6 15 14 15 13 0 26 28 26 58 0 6 -9 12 -20 12 -11 0 -20 7 -20 15 0
8 -9 15 -20 15 -11 0 -20 -7 -20 -15 0 -8 -7 -15 -15 -15 -9 0 -15 9 -15 25 0
20 5 25 26 25 35 0 26 24 -12 28 -33 4 -56 20 -48 33 9 15 83 10 109 -7 30
-20 60 -12 47 12 -10 18 -4 64 9 64 5 0 9 7 9 15 0 8 8 15 18 15 28 0 79 -28
86 -47 7 -18 -19 -42 -46 -43 -13 0 -18 -8 -18 -26 0 -21 3 -24 13 -15 10 7
17 7 24 0 17 -17 33 -1 33 32 0 18 5 29 13 29 25 0 97 59 97 80 0 24 -32 27
-50 5 -9 -11 -16 -12 -30 -3 -14 9 -22 9 -34 -1 -21 -17 -36 -5 -36 28 0 17
-5 29 -12 28 -39 -1 -68 4 -68 13 0 6 18 10 40 10 36 0 40 3 40 25 0 21 3 24
28 19 15 -3 41 0 57 7 32 14 40 15 93 18 32 1 59 30 35 38 -5 2 -8 15 -5 28 4
22 1 25 -27 25 -34 0 -39 11 -14 31 9 8 22 29 30 47 7 17 17 32 22 32 15 0 23
-38 16 -71 -6 -26 -4 -30 12 -27 13 2 19 14 21 41 3 31 7 37 27 37 13 0 27 -5
30 -10 8 -13 35 13 35 34 0 9 -7 16 -15 16 -8 0 -15 7 -15 15 0 8 7 15 15 15
8 0 15 5 15 10 0 6 -7 10 -15 10 -11 0 -15 10 -14 38 1 20 3 29 6 20 5 -21 43
-24 43 -4 0 16 27 29 41 20 17 -10 9 -35 -16 -44 -14 -5 -25 -14 -25 -19 0
-12 43 -22 53 -12 4 4 31 6 58 3 l51 -5 -4 29 c-2 21 -9 30 -25 32 -13 2 -23
7 -23 12 0 5 -12 16 -27 24 l-28 15 33 1 c22 0 32 5 32 15 0 8 9 15 20 15 11
0 20 -7 20 -15 0 -8 5 -15 10 -15 6 0 10 7 10 15 0 12 13 15 59 15 40 0 63 -5
71 -15 15 -18 50 -20 51 -2 0 6 36 43 80 80 43 38 79 75 79 83 0 8 5 14 10 14
6 0 36 25 67 55 31 30 64 55 73 55 9 0 25 10 36 21 10 12 43 35 72 51 85 49
77 57 -78 78 -47 7 -93 16 -102 21 -10 5 -70 9 -134 9 -97 0 -120 3 -142 19
-22 15 -54 19 -174 24 -117 5 -153 10 -180 25 -22 13 -64 21 -121 26 -48 3
-125 9 -172 12 -62 5 -85 10 -85 20 0 11 -20 14 -87 14 -129 0 -427 33 -447
49 -24 20 -105 33 -190 32 -53 0 -109 5 -139 14 -30 9 -91 15 -149 15 -66 0
-98 4 -98 11 0 8 -4 8 -14 0 -10 -9 -16 -9 -21 -1 -4 6 -13 9 -20 6 -7 -2 -23
1 -37 8 -13 7 -59 13 -102 13 -63 0 -80 3 -88 16 -6 12 -23 17 -58 17 -27 0
-52 5 -55 10 -3 6 -28 10 -56 10 -31 0 -49 4 -49 12 0 9 -3 9 -11 1 -8 -8 -19
-7 -39 4 -25 12 -32 12 -52 0 -18 -11 -36 -13 -78 -7 -30 5 -78 9 -106 9 -45
1 -79 11 -135 41 -8 4 -47 11 -85 15 -38 4 -79 13 -91 21 -27 17 -57 18 -85 3
-14 -8 -23 -8 -31 0 -6 6 -23 11 -38 11 -15 0 -30 4 -33 8 -3 5 -54 14 -113
21 -59 7 -135 17 -168 23 -33 6 -78 13 -100 15 -22 3 -44 9 -50 13 -12 9 -150
27 -285 36 -52 3 -99 9 -105 13 -5 4 -58 8 -117 9 -129 2 -226 16 -242 36 -11
14 -72 23 -316 45 -58 6 -114 9 -125 9 -32 -2 -229 24 -240 31 -5 4 -21 8 -35
9 -14 0 -61 6 -105 11 -44 6 -109 13 -144 16 -36 2 -69 9 -75 15 -5 5 -23 10
-38 10 -15 0 -28 4 -28 10 0 6 -9 6 -24 0 -15 -5 -49 -5 -88 0 -34 5 -91 10
-125 10 -34 0 -65 5 -68 10 -9 15 -26 12 -63 -10z m188 -1040 c0 -47 2 -50 25
-50 22 0 25 -4 25 -34 0 -19 5 -38 10 -41 14 -9 12 -51 -2 -75 -11 -17 -10
-22 0 -29 10 -6 16 -60 22 -208 5 -122 13 -209 20 -223 7 -13 10 -38 7 -57 -5
-26 -2 -36 13 -45 14 -9 16 -16 8 -25 -6 -7 -16 -13 -24 -13 -21 0 -23 -13 -9
-65 9 -38 12 -154 10 -472 -2 -232 -6 -426 -9 -431 -3 -5 -6 -140 -8 -301 -2
-161 -7 -295 -11 -298 -4 -3 -7 -92 -5 -200 2 -147 -1 -196 -10 -202 -10 -6
-9 -11 3 -21 23 -20 21 -155 -5 -215 -15 -36 -20 -69 -20 -141 0 -53 5 -105
11 -116 9 -16 7 -26 -8 -47 -17 -23 -19 -43 -18 -201 1 -96 5 -182 8 -190 5
-10 -3 -21 -25 -34 l-33 -18 24 -9 c23 -9 23 -12 17 -82 -4 -39 -9 -151 -11
-247 -2 -96 -9 -204 -15 -240 -6 -36 -13 -143 -15 -239 -2 -108 -8 -184 -15
-200 -7 -14 -16 -33 -20 -41 -4 -9 -4 -38 1 -65 11 -67 11 -222 1 -229 -5 -3
-9 -19 -10 -35 0 -17 -8 -45 -16 -63 -9 -20 -15 -62 -16 -108 0 -142 -5 -197
-19 -214 -8 -9 -14 -31 -13 -48 0 -17 -4 -41 -10 -52 -7 -12 -17 -43 -24 -71
-34 -133 -40 -142 -190 -290 -78 -77 -149 -154 -158 -172 -9 -17 -28 -40 -44
-51 l-27 -20 -13 26 c-15 31 -16 69 -2 77 13 8 13 142 1 147 -15 5 -17 174 -3
191 7 7 8 17 4 21 -4 4 -8 40 -8 79 -1 40 -5 102 -9 140 -6 59 -5 67 9 67 13
0 17 10 18 43 0 23 1 76 2 117 1 50 7 86 19 109 11 22 17 57 17 99 0 47 5 71
17 84 15 17 15 22 -6 82 -17 49 -21 74 -15 113 4 31 2 58 -5 71 -7 14 -8 23
-1 27 5 3 10 19 10 34 0 15 4 31 9 36 9 9 31 407 31 553 0 48 3 62 15 62 12 0
15 14 15 69 0 39 4 73 10 76 5 3 10 17 10 30 0 13 -4 27 -10 30 -14 9 -13 248
2 263 8 8 8 15 -3 28 -11 14 -11 18 4 29 21 15 22 41 1 49 -17 6 -17 10 5 106
6 25 10 75 11 112 0 60 3 69 27 88 l26 21 -2 154 c-2 162 7 204 44 219 22 8
12 55 -21 103 -31 46 -32 128 -4 192 11 24 20 56 20 72 0 15 5 31 10 34 13 8
13 102 0 110 -6 4 -10 57 -10 125 l0 119 28 3 27 3 5 240 c3 154 1 243 -5 247
-5 4 2 8 17 8 34 0 37 6 40 65 1 35 -3 51 -15 60 -14 10 -17 30 -17 103 0 81
2 94 23 114 21 21 22 30 19 118 -2 52 -1 154 3 227 7 125 8 132 28 135 20 3
22 10 25 76 2 39 7 72 12 72 6 0 10 45 10 105 0 63 -4 105 -10 105 -5 0 -10
16 -10 35 0 33 2 35 35 35 23 0 35 5 35 14 0 8 7 17 16 20 9 3 14 13 10 21 -3
8 -1 17 4 20 6 4 10 53 10 111 0 87 3 104 15 104 9 0 18 7 21 15 4 8 12 15 20
15 10 0 14 -14 14 -50z m5700 -1479 c-11 -27 -48 -215 -56 -286 -3 -22 -9 -49
-13 -60 -9 -21 -47 -186 -56 -245 -3 -19 -12 -57 -20 -85 -14 -49 -38 -178
-54 -285 -5 -30 -13 -73 -19 -95 -9 -37 -18 -78 -43 -195 -5 -25 -30 -151 -55
-280 -25 -129 -55 -275 -65 -325 -11 -49 -38 -178 -60 -285 -43 -205 -68 -283
-90 -288 -8 -1 -44 27 -81 63 -37 36 -71 65 -75 65 -5 0 -24 20 -43 45 -22 28
-57 57 -92 75 -36 19 -63 41 -73 59 -15 30 -117 133 -138 140 -22 7 -69 56
-87 91 -10 20 -31 42 -46 50 -16 8 -62 48 -103 88 -40 40 -91 82 -113 93 -21
11 -57 40 -81 65 -23 25 -59 57 -79 70 -55 35 -58 64 -14 118 20 25 36 48 37
53 0 4 28 32 62 62 34 30 115 105 180 168 64 62 120 113 122 113 3 0 48 42
100 93 52 50 116 110 141 132 26 22 104 96 174 165 69 69 216 211 326 315 109
105 220 211 245 238 26 26 52 47 57 47 6 0 15 7 20 16 5 8 28 36 53 61 l44 46
3 -38 c2 -21 -2 -49 -8 -64z m-1549 -1731 c16 -25 66 -82 110 -127 44 -46 77
-87 74 -93 -3 -6 1 -13 9 -16 18 -7 22 -34 6 -34 -5 0 -10 5 -10 11 0 8 -14
10 -39 6 -35 -4 -40 -2 -43 17 -2 11 -9 20 -17 18 -7 -1 -18 4 -25 12 -6 8
-36 16 -70 18 -33 3 -62 10 -64 16 -2 7 -23 12 -48 12 -37 0 -44 3 -44 19 0
11 -6 21 -12 24 -9 2 -12 24 -10 70 3 71 -1 76 -51 84 -18 3 -34 6 -35 8 -9 9
63 95 94 113 16 9 28 2 83 -51 35 -34 76 -82 92 -107z"/>
</g>
</svg>
