<?xml version="1.0" standalone="no"?>
<!DOCTYPE svg PUBLIC "-//W3C//DTD SVG 20010904//EN"
 "http://www.w3.org/TR/2001/REC-SVG-20010904/DTD/svg10.dtd">
<svg version="1.0" xmlns="http://www.w3.org/2000/svg"
 width="901.000000pt" height="901.000000pt" viewBox="0 0 901.000000 901.000000"
 preserveAspectRatio="xMidYMid meet">
<metadata>
Created by potrace 1.14, written by Peter Selinger 2001-2017
</metadata>
<g transform="translate(0.000000,901.000000) scale(0.100000,-0.100000)"
fill="#000000" stroke="none">
<path d="M1386 8557 c-72 -44 -97 -70 -133 -144 -37 -75 -37 -78 -45 -232 -4
-86 -10 -176 -13 -201 -3 -25 -10 -112 -16 -195 -10 -156 -22 -327 -39 -562
-5 -76 -14 -199 -20 -273 -21 -268 -42 -558 -50 -695 -5 -77 -14 -201 -20
-275 -14 -183 -27 -354 -39 -545 -6 -88 -13 -175 -17 -194 -3 -19 -10 -120
-14 -225 -11 -234 -36 -642 -51 -831 -11 -142 -20 -268 -38 -540 -6 -82 -13
-172 -16 -200 -3 -27 -10 -117 -15 -200 -8 -137 -18 -253 -51 -605 -11 -126
-33 -301 -45 -375 -4 -22 -13 -44 -20 -50 -8 -6 -14 -41 -16 -91 -3 -86 -21
-124 -58 -124 -10 0 -20 -9 -23 -20 -5 -18 -14 -20 -76 -20 l-71 0 0 -35 c0
-33 -2 -35 -35 -35 -33 0 -35 -2 -35 -35 0 -33 -2 -35 -35 -35 -33 0 -35 -2
-35 -35 0 -33 -2 -35 -35 -35 -33 0 -35 -2 -35 -35 0 -33 -2 -35 -34 -35 -32
0 -35 -3 -38 -32 -3 -29 -7 -33 -35 -36 l-33 -3 0 -71 c0 -61 -2 -70 -20 -75
-14 -4 -20 -14 -20 -34 0 -15 4 -31 10 -34 6 -4 10 -63 10 -145 0 -82 4 -141
10 -145 6 -3 10 -35 10 -70 l0 -64 33 -3 c32 -3 32 -4 41 -70 7 -52 13 -68 27
-71 11 -3 19 -12 19 -21 0 -9 7 -16 15 -16 8 0 16 -14 20 -35 3 -19 7 -50 10
-69 4 -23 12 -36 25 -39 11 -3 20 -12 20 -21 0 -9 7 -16 15 -16 9 0 18 -7 21
-15 4 -8 10 -12 15 -10 4 3 20 -18 35 -47 31 -63 105 -143 154 -166 19 -9 41
-22 49 -30 27 -26 211 -112 241 -112 17 0 41 -6 53 -14 12 -8 56 -22 97 -32
41 -9 87 -25 102 -35 18 -13 43 -19 80 -19 30 0 58 -4 64 -10 12 -12 280 -38
474 -46 91 -4 156 -11 174 -20 22 -10 79 -14 223 -14 186 0 195 -1 200 -20 5
-20 14 -20 667 -20 709 0 1756 19 1756 32 0 4 47 8 104 8 59 0 108 4 111 10 3
6 50 10 104 10 68 0 108 5 127 15 24 12 78 15 291 15 l262 0 3 38 3 37 90 7
c50 4 145 5 212 1 l122 -6 3 44 c3 42 5 44 36 47 27 3 35 -1 39 -17 6 -25 63
-31 63 -7 0 19 23 26 90 26 l59 0 3 33 3 32 137 3 c133 2 137 3 140 25 3 20 9
22 70 25 l67 3 3 42 3 42 142 3 c138 2 142 3 145 25 3 22 5 22 212 27 152 4
210 8 213 17 3 9 -31 13 -139 15 l-143 3 0 25 0 25 142 3 142 3 3 72 3 72 213
3 212 2 0 30 c0 28 -3 30 -35 30 l-35 0 0 75 0 75 35 0 c33 0 35 -2 35 -35 l0
-35 70 0 70 0 0 105 0 105 35 0 c33 0 35 2 35 35 0 33 2 35 34 35 33 0 35 2
38 38 l3 37 73 3 72 3 0 349 0 349 -37 3 c-34 3 -38 6 -41 33 -2 17 -10 34
-18 38 -8 4 -14 18 -14 30 0 22 -12 30 -82 56 -20 7 -28 17 -28 34 0 19 -8 26
-32 33 -29 8 -33 15 -36 46 -3 38 -18 48 -74 48 -18 0 -29 7 -33 20 -4 14 -15
20 -35 20 -20 0 -31 6 -35 20 -3 11 -11 20 -17 20 -25 0 -87 37 -133 80 -28
26 -80 61 -116 78 -66 31 -91 52 -102 85 -4 9 -16 17 -27 17 -19 0 -38 8 -155
60 -102 46 -122 54 -176 69 l-58 16 20 55 c24 65 48 141 60 190 4 19 29 112
53 205 25 94 57 217 71 275 15 58 31 109 36 115 5 5 9 21 9 35 0 15 9 60 20
101 68 250 83 308 89 344 4 22 17 67 28 100 11 33 31 105 43 160 13 55 29 117
36 138 8 20 14 46 14 56 0 10 7 32 15 47 8 16 15 39 15 52 0 12 4 30 10 40 5
9 18 53 29 97 11 44 32 121 47 170 14 50 30 114 35 143 5 30 16 63 23 75 8 12
17 40 20 62 4 22 18 72 31 110 27 78 52 175 65 250 5 28 22 88 39 135 16 47
30 103 31 125 0 22 9 58 19 80 10 22 21 60 25 84 4 25 13 59 21 75 7 17 16 51
18 76 3 25 12 65 20 90 9 25 29 95 45 155 16 61 42 151 57 200 15 50 31 108
35 130 4 22 14 57 23 79 10 21 17 52 17 68 0 16 7 42 15 57 8 16 16 52 19 80
3 28 12 61 20 73 9 12 16 41 16 63 0 22 9 57 20 78 15 28 19 50 16 90 -4 51
-5 52 -38 53 -57 1 -65 3 -91 30 -21 21 -32 25 -57 19 -24 -5 -35 -3 -44 11
-9 11 -17 14 -27 8 -15 -10 -19 -10 -96 -13 -40 -1 -53 -5 -53 -16 0 -8 -8
-15 -18 -15 -11 0 -27 -9 -37 -20 -17 -19 -17 -20 -1 -20 10 0 16 -5 14 -12
-7 -19 -24 -20 -41 -3 -9 8 -23 15 -31 15 -9 0 -16 5 -16 10 0 6 -7 10 -15 10
-8 0 -15 -4 -15 -10 0 -5 6 -10 14 -10 18 0 26 -22 26 -71 0 -29 4 -39 16 -39
10 0 14 -7 12 -22 -3 -23 -7 -25 -84 -27 -23 -1 -33 -7 -37 -21 -4 -15 -14
-20 -41 -20 -35 0 -36 -1 -36 -40 0 -37 -2 -40 -29 -40 -34 0 -49 -15 -57 -58
-5 -25 -12 -32 -30 -32 -15 0 -24 6 -24 15 0 19 -70 21 -70 3 -1 -7 -24 -25
-53 -39 l-52 -25 -3 -64 c-3 -71 -20 -107 -34 -71 -10 28 -46 27 -58 -1 -7
-18 -9 -19 -9 -5 -1 29 -17 20 -72 -44 -58 -68 -79 -101 -79 -130 0 -15 -7
-19 -33 -19 -29 0 -35 -5 -47 -35 -10 -25 -20 -35 -36 -35 -13 0 -24 -8 -27
-20 -4 -15 -14 -20 -36 -20 -21 0 -31 -5 -31 -15 0 -8 -9 -15 -20 -15 -11 0
-29 -5 -39 -12 -24 -15 -51 -4 -51 22 0 11 -4 20 -8 20 -18 0 -32 -26 -32 -61
0 -35 -2 -38 -32 -41 -28 -2 -33 -7 -33 -28 0 -21 5 -26 33 -28 26 -3 32 -7
32 -28 0 -23 -2 -24 -70 -24 -63 0 -70 -2 -70 -20 0 -15 -7 -20 -25 -20 -21 0
-25 -5 -25 -28 0 -15 -4 -32 -9 -38 -5 -5 -11 -22 -13 -39 -3 -30 -4 -30 -70
-33 l-68 -3 0 -34 c0 -31 -3 -35 -26 -35 -17 0 -28 -6 -31 -19 -3 -12 -17 -21
-42 -25 -66 -10 -101 -34 -101 -67 0 -26 -3 -29 -31 -29 -18 0 -49 -5 -70 -12
-39 -11 -39 -12 -39 -63 0 -72 -17 -105 -55 -105 -17 0 -36 5 -42 11 -6 6 -21
9 -34 7 -22 -3 -24 -8 -27 -65 -2 -35 -7 -63 -12 -63 -6 0 -10 -11 -10 -25 0
-20 -5 -25 -25 -25 -20 0 -25 5 -25 26 0 22 -4 25 -27 22 -23 -2 -29 -9 -31
-33 -3 -29 -35 -55 -68 -55 -7 0 -17 -6 -21 -14 -5 -9 -28 -16 -63 -18 l-55
-3 -3 -76 c-2 -67 -5 -78 -22 -82 -14 -3 -20 -14 -20 -32 0 -22 -4 -26 -22
-23 -14 2 -24 12 -28 28 -5 20 -12 25 -35 25 -27 0 -30 -4 -33 -34 -2 -23 -9
-35 -23 -38 -14 -4 -19 -14 -19 -39 0 -23 -5 -34 -14 -34 -9 0 -16 -12 -18
-32 -3 -28 -7 -33 -33 -36 -16 -2 -35 -10 -42 -19 -9 -12 -26 -14 -77 -11 -63
4 -66 3 -66 -19 0 -14 -6 -23 -15 -23 -9 0 -15 -9 -15 -25 0 -16 -6 -25 -16
-25 -9 0 -18 -9 -21 -20 -3 -13 -14 -20 -29 -20 -18 0 -24 -5 -24 -22 0 -24
-37 -48 -72 -48 -12 0 -18 -8 -18 -24 0 -15 -7 -26 -20 -29 -27 -7 -26 -44 2
-68 l21 -19 -36 0 c-21 0 -37 -4 -37 -10 0 -5 -6 -10 -13 -10 -8 0 -22 -9 -32
-20 -11 -12 -31 -20 -52 -20 -31 0 -33 -2 -33 -32 -1 -43 -21 -68 -55 -68 -18
0 -28 -6 -32 -20 -4 -15 -14 -20 -39 -20 -32 0 -34 -2 -34 -35 l0 -34 -67 -3
c-67 -3 -68 -3 -71 -33 -2 -16 -8 -34 -13 -40 -5 -5 -9 -22 -9 -37 0 -25 -3
-28 -33 -28 -51 0 -97 -27 -97 -56 0 -18 -5 -24 -23 -24 -17 0 -27 -9 -37 -34
-11 -28 -20 -36 -44 -38 -23 -2 -32 -9 -34 -25 -3 -17 -10 -23 -28 -23 -13 0
-24 -4 -24 -9 0 -5 -9 -11 -20 -14 -17 -4 -20 -14 -20 -56 0 -48 -2 -51 -25
-51 -19 0 -25 5 -25 21 0 16 -5 20 -27 17 -24 -3 -29 -8 -32 -38 -4 -33 -4
-34 -12 -10 -7 24 -7 25 -14 3 -4 -11 -15 -23 -25 -26 -9 -2 -20 -17 -24 -33
-12 -45 -22 -52 -71 -46 l-45 5 0 -37 c0 -20 5 -36 10 -36 17 0 11 -36 -8 -53
-10 -10 -30 -17 -43 -17 -31 0 -49 -17 -49 -46 0 -35 -24 -47 -87 -42 -61 5
-113 -12 -113 -38 0 -8 5 -14 10 -14 6 0 10 -16 10 -35 0 -34 -1 -35 -38 -35
-40 0 -72 -23 -72 -52 0 -15 -31 -35 -65 -40 -15 -2 -23 -15 -30 -50 -5 -25
-12 -48 -15 -51 -3 -2 -28 -7 -57 -10 l-52 -6 -3 32 c-3 27 -7 32 -33 35 -26
2 -42 -9 -110 -76 -90 -87 -195 -203 -195 -213 0 -4 12 -17 27 -29 34 -26 19
-47 -20 -27 -18 9 -23 17 -16 24 7 7 5 12 -6 17 -12 4 -18 0 -22 -14 -3 -11
-9 -20 -12 -20 -13 0 -101 -85 -101 -98 0 -20 18 -14 31 10 11 20 13 20 24 5
7 -9 24 -17 39 -17 21 0 26 -5 26 -26 0 -27 0 -27 -61 -21 -34 3 -65 10 -68
16 -5 7 -16 5 -35 -4 -16 -8 -33 -15 -40 -15 -6 0 -17 -9 -24 -20 -7 -11 -19
-20 -27 -20 -8 0 -15 -4 -15 -10 0 -5 -16 -27 -35 -49 -19 -21 -35 -43 -35
-48 0 -6 -15 -14 -32 -19 -22 -7 -34 -17 -36 -31 -4 -24 -40 -38 -88 -34 -18
1 -35 -2 -39 -8 -3 -6 -40 -11 -85 -11 -68 0 -79 -3 -85 -19 -5 -15 -20 -19
-101 -24 -53 -3 -101 -10 -107 -16 -6 -6 -26 -11 -43 -11 -18 0 -36 -4 -39
-10 -3 -5 -19 -10 -35 -10 -25 0 -29 -4 -35 -40 -5 -29 -12 -40 -24 -40 -10 0
-26 -9 -36 -20 -22 -24 -38 -25 -55 -4 -10 12 -13 76 -12 277 1 144 4 294 7
332 3 39 10 185 15 325 18 438 50 1018 82 1455 17 231 32 458 34 505 5 104 39
738 60 1100 8 146 19 357 25 470 14 302 31 500 41 500 5 0 69 -58 141 -129
186 -183 235 -231 567 -551 162 -157 326 -316 365 -355 39 -38 114 -110 166
-159 87 -83 341 -331 737 -720 197 -194 208 -214 248 -431 18 -99 21 -318 5
-405 -16 -91 -41 -189 -56 -225 -19 -43 -44 -111 -65 -180 l-19 -60 32 36 c18
20 44 42 58 50 15 8 44 35 65 60 22 26 46 53 54 61 20 19 213 205 375 359 71
68 186 183 256 254 70 72 131 134 136 138 22 21 214 212 255 254 26 26 59 56
72 65 13 10 30 31 37 47 7 16 17 27 22 24 13 -8 36 17 30 33 -4 10 2 14 21 14
19 0 44 19 96 73 38 39 70 77 70 84 0 6 20 21 45 33 25 12 45 27 45 33 0 5 7
17 15 26 45 48 69 85 57 89 -23 7 -12 22 16 22 19 0 39 11 62 35 19 19 38 35
43 35 17 0 38 28 26 36 -7 4 -31 -14 -58 -42 -43 -46 -46 -48 -49 -25 -2 13
-12 26 -23 28 -28 8 -27 73 1 73 16 0 20 7 20 35 0 24 5 35 15 35 9 0 15 9 15
23 0 26 44 50 87 45 27 -3 40 -19 57 -70 9 -31 30 -20 107 52 40 39 77 70 82
70 4 0 13 13 18 29 6 15 21 33 34 39 33 15 33 42 0 42 -20 0 -25 -5 -25 -24 0
-17 -7 -26 -25 -30 -14 -4 -25 -11 -25 -17 0 -6 -28 -39 -61 -74 -65 -67 -70
-69 -97 -18 -8 14 -24 23 -44 25 -46 4 -47 26 -1 30 36 3 38 5 41 41 2 24 8
37 18 37 8 0 14 6 14 14 0 14 -41 26 -87 26 -14 0 -23 5 -21 11 5 14 134 23
143 9 10 -17 32 -11 38 10 4 15 14 20 36 20 24 0 31 4 31 19 0 10 6 24 14 30
7 6 17 40 21 76 l6 64 46 7 c33 5 55 2 79 -10 49 -23 53 -21 50 20 -4 39 -35
63 -85 65 -22 2 -21 3 9 9 52 10 80 21 80 31 0 5 7 9 15 9 8 0 15 -7 15 -15 0
-21 13 -19 27 4 15 24 8 31 -36 31 -20 0 -45 7 -55 15 -19 14 -17 15 21 15 54
0 108 19 94 33 -6 6 -11 36 -11 67 0 53 1 56 33 69 50 22 76 44 77 64 0 10 5
15 11 11 6 -3 30 -7 55 -9 35 -2 45 1 49 16 8 25 -1 39 -26 39 -10 0 -19 7
-19 15 0 16 30 21 118 16 49 -3 70 10 37 23 -8 3 -15 12 -15 19 0 8 -18 19
-41 26 -44 13 -48 34 -8 39 13 2 28 8 34 13 12 12 45 12 45 -1 0 -5 -7 -10
-15 -10 -8 0 -15 -9 -15 -21 0 -19 2 -19 21 -5 12 8 28 12 35 9 9 -3 14 2 14
12 0 14 6 16 35 11 31 -6 35 -4 40 17 6 21 15 26 56 31 27 4 49 11 49 16 0 6
7 10 15 10 9 0 19 9 23 20 7 20 8 20 52 -4 33 -18 50 -21 63 -14 10 5 23 7 30
4 7 -2 5 -5 -4 -5 -22 -1 -32 -30 -18 -47 15 -19 28 -18 36 3 4 9 23 30 42 47
20 16 71 65 114 108 43 43 82 78 86 78 5 0 11 7 14 14 3 8 21 22 39 32 18 9
43 25 54 36 12 10 41 30 65 43 57 30 64 55 16 55 -19 0 -59 5 -88 11 -30 5
-119 14 -199 18 -96 5 -157 13 -180 23 -19 9 -71 19 -115 22 -159 11 -211 18
-242 32 -17 8 -58 14 -90 14 -32 0 -63 4 -68 9 -6 5 -71 14 -145 20 -73 6
-139 16 -144 21 -6 6 -34 10 -64 10 -29 0 -83 4 -120 9 -37 5 -114 15 -172 21
-68 8 -111 18 -123 28 -15 13 -44 17 -140 18 -76 0 -133 6 -152 14 -18 7 -97
16 -192 20 -107 5 -168 12 -178 20 -8 7 -43 14 -78 15 -117 4 -207 17 -207 30
0 9 -32 14 -107 19 -137 7 -136 7 -150 18 -7 5 -16 7 -21 4 -5 -3 -60 -1 -123
4 -90 7 -125 15 -164 35 -32 16 -67 25 -97 25 -26 0 -50 5 -53 10 -3 6 -44 10
-90 10 -46 0 -87 5 -90 10 -3 6 -19 10 -34 10 -15 0 -31 4 -37 9 -5 5 -63 15
-128 21 -65 6 -129 15 -142 20 -12 5 -51 12 -86 16 -34 3 -68 11 -75 16 -7 5
-72 13 -145 18 -174 11 -465 38 -503 47 -30 6 -59 11 -82 12 -7 1 -13 8 -13
16 0 8 -8 15 -17 15 -22 0 -184 15 -398 35 -88 8 -191 18 -230 21 -38 4 -75
10 -80 15 -14 10 -187 28 -218 22 -14 -3 -28 0 -31 6 -4 6 -20 11 -35 11 -15
0 -31 3 -35 7 -4 4 -36 6 -71 5 -38 -2 -65 1 -69 7 -4 6 -39 11 -81 11 -41 0
-77 5 -80 10 -8 13 -35 12 -59 -3z m112 -645 c2 -7 -3 -12 -12 -12 -9 0 -16 7
-16 16 0 17 22 14 28 -4z m72 -287 c0 -10 10 -15 30 -15 23 0 33 -7 46 -32 11
-22 13 -33 5 -36 -14 -5 -15 -69 -1 -77 6 -4 10 -104 10 -266 0 -222 2 -260
15 -265 8 -4 15 -15 15 -25 0 -11 5 -28 12 -38 9 -15 8 -26 -7 -57 -18 -37
-18 -38 3 -52 17 -11 19 -18 11 -33 -5 -10 -19 -19 -30 -19 -16 0 -19 -4 -14
-17 5 -10 13 -47 18 -83 6 -36 13 -67 17 -70 6 -5 19 -35 20 -45 0 -3 -3 -5
-7 -6 -29 -3 -31 -27 -31 -317 0 -163 -4 -416 -9 -562 -5 -146 -6 -305 -2
-355 6 -69 4 -93 -6 -105 -11 -12 -13 -76 -12 -315 2 -262 0 -304 -15 -330
-19 -35 -24 -215 -7 -248 9 -15 7 -25 -8 -46 -18 -23 -20 -43 -19 -198 1 -123
5 -176 14 -185 16 -16 15 -37 -2 -44 -14 -5 -20 -82 -31 -409 -3 -66 -9 -156
-15 -200 -17 -127 -23 -302 -11 -336 9 -25 7 -38 -9 -69 -17 -34 -20 -60 -20
-189 0 -82 -4 -171 -9 -198 -6 -26 -15 -95 -21 -152 -6 -56 -16 -115 -21 -129
-7 -18 -6 -34 2 -54 10 -25 9 -31 -10 -49 -14 -14 -21 -32 -21 -58 0 -21 -6
-44 -14 -51 -8 -6 -20 -37 -27 -68 -24 -119 -64 -174 -257 -357 -35 -33 -75
-79 -89 -103 -14 -23 -34 -47 -44 -53 -10 -5 -22 -21 -25 -35 -4 -14 -11 -23
-18 -21 -16 5 -25 68 -25 187 -1 59 -5 110 -10 115 -5 6 -12 20 -16 33 -5 16
-2 22 9 22 9 0 16 5 16 10 0 13 -22 53 -34 62 -6 4 -1 24 12 50 29 58 36 119
22 202 -12 73 0 159 27 202 14 23 9 98 -9 120 -5 8 -1 25 11 48 12 20 23 65
27 103 4 45 13 75 25 88 18 20 18 22 -6 72 -19 38 -25 67 -24 115 0 34 0 86 0
113 -1 36 3 53 15 62 14 10 18 50 25 275 5 145 13 324 19 399 5 74 10 195 10
267 0 91 4 132 11 132 7 0 9 11 6 28 -3 17 0 33 10 45 15 15 15 19 0 35 -14
15 -16 31 -11 81 4 34 11 64 15 67 5 3 9 38 10 77 0 53 6 80 20 102 46 73 54
136 11 93 -9 -9 -12 -8 -12 4 0 9 7 18 15 22 12 4 15 25 15 101 0 103 13 145
51 166 16 8 18 14 10 22 -6 6 -11 17 -11 24 0 6 -11 29 -25 49 -36 53 -34 137
5 229 5 11 12 55 15 97 6 66 4 79 -9 84 -17 7 -23 64 -7 64 5 0 11 55 13 122
2 86 7 123 16 126 7 2 12 22 12 52 0 27 5 52 10 55 6 4 10 60 10 136 0 72 5
139 10 150 7 13 7 19 0 19 -5 0 -10 20 -10 45 0 43 1 45 28 45 38 0 47 11 19
24 -19 10 -22 20 -25 86 -4 84 12 172 34 190 11 10 14 53 14 231 0 134 4 220
10 224 6 3 10 25 10 49 0 42 18 96 33 96 4 0 7 64 7 143 0 120 3 148 19 177
10 20 22 68 26 108 4 39 10 72 14 72 5 0 12 30 17 68 9 66 9 67 42 70 18 2 36
10 39 18 7 19 33 18 33 -1z m-134 -16 c10 -17 -13 -36 -27 -22 -12 12 -4 33
11 33 5 0 12 -5 16 -11z m5194 -388 c24 -7 24 -7 -9 -14 -34 -7 -51 -3 -51 14
0 10 23 10 60 0z m1185 -121 c-3 -5 -10 -10 -16 -10 -5 0 -9 5 -9 10 0 6 7 10
16 10 8 0 12 -4 9 -10z m-1405 -46 c0 -8 -4 -12 -10 -9 -5 3 -10 10 -10 16 0
5 5 9 10 9 6 0 10 -7 10 -16z m-116 -194 c10 -10 -1 -30 -18 -30 -21 0 -76 31
-76 42 0 12 80 2 94 -12z m-154 -36 c0 -14 -3 -14 -15 -4 -8 7 -15 14 -15 16
0 2 7 4 15 4 8 0 15 -7 15 -16z m-35 -44 c3 -5 -3 -10 -14 -10 -11 0 -23 5
-26 10 -3 6 3 10 14 10 11 0 23 -4 26 -10z m81 -50 c15 0 24 -6 24 -15 0 -18
-22 -19 -92 -3 l-53 13 35 6 c19 4 41 5 48 3 8 -2 25 -4 38 -4z m-56 -45 c11
-13 5 -15 -41 -13 -43 1 -47 2 -16 5 20 2 37 8 37 14 0 13 6 11 20 -6z m-13
-117 c-3 -8 -6 -5 -6 6 -1 11 2 17 5 13 3 -3 4 -12 1 -19z m843 -204 c0 -31
-23 -28 -28 4 -2 15 2 22 12 22 11 0 16 -9 16 -26z m310 -326 c-13 -46 -50
-228 -56 -283 -3 -22 -9 -49 -13 -60 -10 -23 -25 -90 -51 -220 -10 -49 -22
-110 -28 -135 -15 -61 -43 -204 -51 -265 -4 -27 -13 -68 -19 -90 -6 -22 -16
-67 -22 -100 -7 -33 -16 -80 -21 -105 -5 -25 -29 -146 -54 -270 -24 -124 -54
-268 -65 -320 -11 -52 -39 -183 -61 -290 -41 -198 -73 -300 -95 -300 -6 0 -37
27 -67 60 -31 33 -67 65 -80 71 -13 6 -31 23 -39 37 -23 38 -56 66 -113 96
-33 17 -57 38 -69 61 -10 19 -26 37 -35 40 -14 5 -39 25 -137 114 -12 11 -28
28 -36 39 -7 11 -32 29 -54 41 -22 12 -53 35 -69 51 -16 17 -34 30 -40 30 -20
0 -46 36 -39 54 8 21 -19 52 -66 76 -19 10 -62 44 -96 76 -34 33 -75 69 -93
82 -45 34 -42 45 34 140 21 27 306 300 358 344 15 12 78 71 139 131 61 59 114
107 118 107 3 0 51 46 106 103 56 56 143 141 195 188 52 48 157 149 235 225
77 77 157 152 177 167 20 15 44 41 52 58 9 16 20 29 26 29 5 0 38 28 72 62
l62 62 3 -34 c2 -19 -1 -52 -8 -72z m-1697 47 c-8 -23 26 -55 59 -55 18 0 28
-5 28 -15 0 -8 5 -15 10 -15 6 0 10 9 10 20 0 11 7 20 15 20 11 0 15 -11 15
-36 0 -36 0 -37 -35 -31 -35 6 -43 0 -26 -18 4 -6 11 -25 14 -42 5 -25 3 -33
-8 -33 -8 0 -15 5 -15 10 0 6 -7 10 -15 10 -12 0 -15 13 -15 59 0 58 -1 60
-27 63 -24 3 -28 8 -31 41 -2 28 1 37 12 37 10 0 13 -6 9 -15z m-3 -265 c0
-25 -33 -60 -50 -55 -10 3 -21 1 -25 -5 -10 -17 -25 -11 -25 10 0 11 7 20 15
20 8 0 15 6 15 14 0 8 12 17 28 19 15 2 30 5 35 6 4 0 7 -4 7 -9z m637 -6 c-3
-3 -12 -4 -19 -1 -8 3 -5 6 6 6 11 1 17 -2 13 -5z m50 -16 c-3 -8 -6 -5 -6 6
-1 11 2 17 5 13 3 -3 4 -12 1 -19z m-397 -333 c15 -18 3 -38 -19 -29 -9 4 -34
10 -56 14 -38 7 -38 8 -8 9 17 0 35 6 38 11 9 14 31 12 45 -5z m-212 -1063
c42 -43 84 -91 92 -106 8 -16 50 -65 94 -109 43 -45 87 -100 97 -122 10 -23
30 -47 44 -55 14 -7 25 -17 25 -21 0 -4 7 -15 16 -23 14 -15 14 -16 -3 -16
-11 0 -34 16 -53 35 -35 36 -84 47 -107 24 -13 -13 -33 -4 -33 17 0 9 -11 14
-35 14 -31 0 -35 3 -35 25 0 18 -5 25 -20 25 -11 0 -20 -7 -20 -15 0 -8 -7
-15 -15 -15 -8 0 -15 6 -15 13 0 12 -85 57 -108 57 -14 0 -72 111 -72 140 0
11 -7 20 -15 20 -9 0 -15 9 -15 21 0 12 -8 23 -20 26 -11 3 -20 9 -20 14 0 12
117 129 130 129 6 0 45 -35 88 -78z m-1051 -18 c-3 -3 -12 -4 -19 -1 -8 3 -5
6 6 6 11 1 17 -2 13 -5z m-1387 -1024 c0 -32 -2 -33 -37 -24 -27 8 -29 22 -5
40 28 22 42 16 42 -16z m-32 -62 c-1 -13 -6 -29 -11 -36 -6 -7 -10 -26 -9 -42
0 -20 -7 -33 -24 -45 -27 -18 -46 -12 -37 10 3 9 -1 15 -10 15 -8 0 -17 10
-21 22 -4 17 4 32 31 60 43 44 82 51 81 16z m-110 -170 c-6 -18 -28 -21 -28
-4 0 9 7 16 16 16 9 0 14 -5 12 -12z m-617 -518 c5 0 9 -7 9 -16 0 -14 -3 -14
-15 -4 -8 7 -14 22 -14 34 1 17 2 17 6 4 2 -10 9 -18 14 -18z m-1444 -92 c-3
-7 -5 -2 -5 12 0 14 2 19 5 13 2 -7 2 -19 0 -25z m1263 -73 c0 -34 -1 -35 -39
-35 -22 0 -42 4 -45 9 -9 14 46 57 77 60 4 1 7 -15 7 -34z m-145 -114 c-9 -16
-25 -3 -18 15 4 10 9 12 15 6 6 -6 7 -15 3 -21z m-1438 -393 c-3 -8 -6 -5 -6
6 -1 11 2 17 5 13 3 -3 4 -12 1 -19z m7243 -1043 c0 -68 -2 -75 -20 -75 -18 0
-20 7 -20 68 0 71 4 82 27 82 10 0 13 -19 13 -75z"/>
<path d="M1001 1984 c0 -11 3 -14 6 -6 3 7 2 16 -1 19 -3 4 -6 -2 -5 -13z"/>
<path d="M6890 7241 c0 -16 -3 -38 -6 -48 -6 -15 -4 -16 7 -5 7 6 23 12 36 12
27 0 29 12 7 45 -22 34 -44 32 -44 -4z"/>
<path d="M7090 7239 c0 -5 5 -7 10 -4 6 3 10 8 10 11 0 2 -4 4 -10 4 -5 0 -10
-5 -10 -11z"/>
<path d="M6707 7123 c-4 -3 -7 -13 -7 -21 0 -12 3 -12 15 -2 8 7 15 16 15 21
0 11 -14 12 -23 2z"/>
<path d="M6556 7053 c-7 -7 13 -33 25 -33 5 0 9 6 9 14 0 15 -24 28 -34 19z"/>
<path d="M6783 6965 c-3 -9 -3 -18 0 -22 10 -10 37 6 37 22 0 20 -29 20 -37 0z"/>
<path d="M6555 6940 c-10 -17 3 -27 32 -25 49 3 53 5 53 20 0 17 -75 22 -85 5z"/>
<path d="M6520 6899 c0 -5 5 -7 10 -4 6 3 10 8 10 11 0 2 -4 4 -10 4 -5 0 -10
-5 -10 -11z"/>
<path d="M6560 6756 c-6 -8 -21 -16 -33 -18 -31 -4 -36 -39 -5 -36 13 2 25 5
28 8 3 3 14 10 25 16 24 13 32 44 12 44 -8 0 -20 -6 -27 -14z"/>
<path d="M6235 6600 c3 -5 8 -10 11 -10 2 0 4 5 4 10 0 6 -5 10 -11 10 -5 0
-7 -4 -4 -10z"/>
<path d="M6910 6525 c0 -8 5 -15 10 -15 6 0 10 7 10 15 0 8 -4 15 -10 15 -5 0
-10 -7 -10 -15z"/>
<path d="M6320 6515 c0 -8 7 -15 15 -15 8 0 15 7 15 15 0 8 -7 15 -15 15 -8 0
-15 -7 -15 -15z"/>
<path d="M5940 6135 c-7 -9 -11 -18 -8 -20 3 -3 11 1 18 10 7 9 11 18 8 20 -3
3 -11 -1 -18 -10z"/>
<path d="M5555 5460 c-3 -5 -1 -10 4 -10 6 0 11 5 11 10 0 6 -2 10 -4 10 -3 0
-8 -4 -11 -10z"/>
<path d="M3555 3760 c-3 -5 -1 -10 4 -10 6 0 11 5 11 10 0 6 -2 10 -4 10 -3 0
-8 -4 -11 -10z"/>
<path d="M3455 3690 c-3 -5 1 -10 9 -10 9 0 16 5 16 10 0 6 -4 10 -9 10 -6 0
-13 -4 -16 -10z"/>
<path d="M3400 3630 c-13 -11 -19 -20 -14 -20 14 1 48 29 42 35 -2 3 -15 -4
-28 -15z"/>
<path d="M3327 3562 c-20 -22 -21 -32 -6 -32 12 0 38 29 39 43 0 13 -17 7 -33
-11z"/>
<path d="M3257 3492 c-22 -24 -21 -32 2 -32 15 0 21 -8 24 -32 2 -20 4 -11 5
25 2 60 -5 68 -31 39z"/>
<path d="M3196 3443 c-3 -3 -6 -12 -6 -20 0 -15 36 -18 45 -4 7 12 -29 33 -39
24z"/>
<path d="M8570 1780 c0 -11 7 -20 15 -20 8 0 15 9 15 20 0 11 -7 20 -15 20 -8
0 -15 -9 -15 -20z"/>
</g>
</svg>
